<svg width="30" height="30" viewBox="0 0 30 30" fill="none" xmlns="http://www.w3.org/2000/svg">
<g clip-path="url(#clip0_4_26)">
<path fill-rule="evenodd" clip-rule="evenodd" d="M15 2.5C8.09644 2.5 2.5 8.09644 2.5 15C2.5 21.9036 8.09644 27.5 15 27.5C21.9036 27.5 27.5 21.9036 27.5 15C27.5 8.09644 21.9036 2.5 15 2.5ZM0 15C0 6.71575 6.71575 0 15 0C23.2842 0 30 6.71575 30 15C30 23.2842 23.2842 30 15 30C6.71575 30 0 23.2842 0 15Z" fill="white"/>
<path fill-rule="evenodd" clip-rule="evenodd" d="M11.9896 28.4197C11.8686 28.2637 11.8686 26.8733 11.9896 24.2487C10.6946 24.2935 9.8765 24.2036 9.53519 23.9792C9.02312 23.6425 8.51056 22.6042 8.05569 21.8724C7.60087 21.1407 6.59144 21.025 6.18378 20.8614C5.77614 20.6978 5.6738 20.031 7.30706 20.5353C8.94025 21.0396 9.01994 22.4129 9.53519 22.7341C10.0504 23.0552 11.2822 22.9147 11.8405 22.6574C12.3989 22.4002 12.3577 21.4424 12.4573 21.0629C12.5832 20.7087 12.1396 20.6302 12.1298 20.6273C11.5847 20.6273 8.72119 20.0046 7.93469 17.2316C7.14812 14.4587 8.16131 12.6463 8.70181 11.8672C9.06219 11.3477 9.03031 10.2407 8.60619 8.54606C10.1459 8.34931 11.3342 8.83393 12.1709 10.0001C12.1717 10.0067 13.2678 9.34825 15.0002 9.34825C16.7325 9.34825 17.3471 9.88462 17.8214 10.0001C18.2957 10.1155 18.675 7.95881 21.6042 8.54606C20.9927 9.74806 20.4806 11.2501 20.8714 11.8672C21.2624 12.4843 22.7966 14.4467 21.8541 17.2316C21.2259 19.0883 19.9908 20.2202 18.149 20.6273C17.9378 20.6947 17.8322 20.8034 17.8322 20.9534C17.8322 21.1785 18.1177 21.2031 18.5291 22.2573C18.8033 22.9601 18.8231 24.9675 18.5885 28.2794C17.9941 28.4307 17.5317 28.5322 17.2013 28.5842C16.6154 28.6762 15.9793 28.7279 15.3543 28.7478C14.7293 28.7677 14.5122 28.7655 13.6481 28.6851C13.0721 28.6314 12.5192 28.543 11.9896 28.4197Z" fill="white"/>
</g>
<defs>
<clipPath id="clip0_4_26">
<rect width="30" height="30" fill="white"/>
</clipPath>
</defs>
</svg>
