<svg width="190" height="166" viewBox="0 0 190 166" fill="none" xmlns="http://www.w3.org/2000/svg">
<path d="M155.218 114.354H34.8448C33.0709 114.354 31.6771 115.748 31.6771 117.522C31.6771 119.296 33.0709 120.69 34.8448 120.69H155.218C156.992 120.69 158.386 119.296 158.386 117.522C158.386 115.812 156.992 114.354 155.218 114.354ZM34.8448 133.361H155.218C156.992 133.361 158.386 134.818 158.386 136.528C158.386 138.302 156.992 139.696 155.218 139.696H34.8448C33.0709 139.696 31.6771 138.302 31.6771 136.528C31.6771 134.754 33.0709 133.361 34.8448 133.361Z" fill="black"/>
<path d="M26.1019 25.7218H57.0188V15.5851C57.0188 6.96897 63.9878 0 72.6673 0H117.459C126.075 0 133.044 6.96897 133.044 15.5851V25.7218H163.897C178.367 25.7218 189.999 37.4424 189.999 51.8238V148.851C190.082 157.815 182.739 165.038 173.844 165.038H16.2187C11.9182 165.034 7.79491 163.325 4.75405 160.284C1.71318 157.243 0.00335578 153.12 0 148.819V51.8238C0 37.3537 11.7205 25.7218 26.1019 25.7218ZM118.789 15.5851C118.789 14.8882 118.219 14.2547 117.459 14.2547H72.6039C71.907 14.2547 71.2735 14.8249 71.2735 15.5851V25.7218H118.789V15.5851ZM26.1019 38.3927C18.6895 38.3927 12.6708 44.3733 12.6708 51.8238V76.3418H38.0125V73.9977C38.0125 71.7803 39.7864 70.0698 41.9405 70.0698H59.3629C61.5803 70.0698 63.2909 71.8437 63.2909 73.9977V76.3418H126.708V73.9977C126.708 71.7803 128.482 70.0698 130.636 70.0698H148.059C150.276 70.0698 151.987 71.8437 151.987 73.9977V76.3418H177.328V51.8238C177.328 44.4113 171.348 38.3927 163.897 38.3927H26.1019ZM126.708 82.6773H63.2909C63.2725 86.0095 61.9362 89.199 59.5741 91.5493C57.2119 93.8997 54.0156 95.2198 50.6834 95.2214C47.3447 95.2216 44.1409 93.904 41.7682 91.5551C39.3956 89.2062 38.0459 86.0158 38.0125 82.6773H12.6708V148.819C12.6708 150.77 14.2674 152.367 16.2187 152.367H173.844C174.758 152.375 175.637 152.021 176.29 151.383C176.943 150.744 177.317 149.872 177.328 148.958V82.6773H151.987C151.968 86.0095 150.632 89.199 148.27 91.5493C145.908 93.8997 142.712 95.2198 139.379 95.2214C136.041 95.2216 132.837 93.904 130.464 91.5551C128.092 89.2062 126.742 86.0158 126.708 82.6773Z" fill="black"/>
</svg>
