<svg width="23" height="24" viewBox="0 0 23 24" fill="none" xmlns="http://www.w3.org/2000/svg">
<path fill-rule="evenodd" clip-rule="evenodd" d="M6.25 5.75C6.25 4.42392 6.77678 3.15215 7.71447 2.21447C8.65215 1.27678 9.92392 0.75 11.25 0.75C12.5761 0.75 13.8479 1.27678 14.7855 2.21447C15.7232 3.15215 16.25 4.42392 16.25 5.75C16.25 7.07608 15.7232 8.34785 14.7855 9.28553C13.8479 10.2232 12.5761 10.75 11.25 10.75C9.92392 10.75 8.65215 10.2232 7.71447 9.28553C6.77678 8.34785 6.25 7.07608 6.25 5.75ZM6.25 13.25C4.5924 13.25 3.00269 13.9085 1.83058 15.0806C0.65848 16.2527 0 17.8424 0 19.5C0 20.4946 0.395088 21.4484 1.09835 22.1517C1.80161 22.8549 2.75544 23.25 3.75 23.25H18.75C19.7446 23.25 20.6984 22.8549 21.4017 22.1517C22.1049 21.4484 22.5 20.4946 22.5 19.5C22.5 17.8424 21.8415 16.2527 20.6694 15.0806C19.4973 13.9085 17.9076 13.25 16.25 13.25H6.25Z" fill="white"/>
</svg>
